<?xml version="1.0" encoding="UTF-8" standalone="no"?>
<!DOCTYPE svg PUBLIC "-//W3C//DTD SVG 1.1//EN" "http://www.w3.org/Graphics/SVG/1.1/DTD/svg11.dtd">
<svg width="100%" height="100%" viewBox="0 0 32 32" version="1.1" xmlns="http://www.w3.org/2000/svg" xmlns:xlink="http://www.w3.org/1999/xlink" xml:space="preserve" style="fill-rule:evenodd;clip-rule:evenodd;stroke-linejoin:round;stroke-miterlimit:1.41421;">
    <path d="M16,0C7.163,0 0,7.163 0,16C0,24.836 7.163,32 16,32C24.837,32 32,24.836 32,16C32,7.163 24.837,0 16,0Z" style="fill:white;fill-rule:nonzero;"/>
    <path d="M13.69,24.903L17.369,24.903L17.369,15.999L19.823,15.999L20.148,12.931L17.369,12.931L17.373,11.395C17.373,10.595 17.449,10.166 18.597,10.166L20.131,10.166L20.131,7.097L17.676,7.097C14.727,7.097 13.69,8.586 13.69,11.089L13.69,12.931L11.852,12.931L11.852,16L13.69,16L13.69,24.903Z" style="fill:rgb(48,188,237);fill-rule:nonzero;"/>
</svg>
